<?xml version="1.0" encoding="utf-8"?>
<!DOCTYPE svg PUBLIC "-//W3C//DTD SVG 1.1//EN" "http://www.w3.org/Graphics/SVG/1.1/DTD/svg11.dtd">
<svg width="700" height="130" xmlns="http://www.w3.org/2000/svg">
	<defs>
		<filter id="pixelize">
			<feColorMatrix values="1 0 0 0 0    0 1 0 0 0       0 0 1 0 0      0 0 0 1000 -500"/>
		</filter>
	</defs>

	<svg viewBox="0 0 10 13" x="0" y="0" width="100" height="130">
		<rect x="5" width="4" y="6" height="7" fill="red" filter="url(#pixelize)" />
		<circle cx="7" cy="4" r="3" fill="peachpuff" filter="url(#pixelize)" />
		<circle cx="5.6" cy="3.5" r="0.6" fill="black" filter="url(#pixelize)" />
		<circle cx="6" cy="10" r="0.8" fill="peachpuff" filter="url(#pixelize)" />
		<circle cx="2" cy="9" r="0.8" fill="peachpuff" filter="url(#pixelize)" />
		<path fill="brown" d="M4 13 h-1 q-3,-4 0,-8 h1 q-3,4 0,8" filter="url(#pixelize)" />
	</svg>
	
	<svg viewBox="0 0 10 13" x="100" y="0" width="100" height="130">
		<rect x="5" width="4" y="6" height="7" fill="red" filter="url(#pixelize)" />
		<circle cx="7" cy="4" r="3" fill="peachpuff" filter="url(#pixelize)" />
		<circle cx="5.6" cy="3.5" r="0.6" fill="black" filter="url(#pixelize)" />
		<circle cx="4" cy="8.5" r="0.8" fill="peachpuff" filter="url(#pixelize)" />
		<circle cx="1.75" cy="8" r="0.8" fill="peachpuff" filter="url(#pixelize)" />
		<path fill="brown" d="M3.75 12 h-1 q-3,-4 0,-8 h1 q-3,4 0,8" filter="url(#pixelize)" />
	</svg>
	
	<svg viewBox="0 0 10 13" x="200" y="0" width="100" height="130">
		<rect x="5" width="4" y="6" height="7" fill="red" filter="url(#pixelize)" />
		<circle cx="7" cy="4" r="3" fill="peachpuff" filter="url(#pixelize)" />
		<circle cx="5.6" cy="3.5" r="0.6" fill="black" filter="url(#pixelize)" />
		<circle cx="3" cy="7" r="0.8" fill="peachpuff" filter="url(#pixelize)" />
		<circle cx="1.5" cy="7" r="0.8" fill="peachpuff" filter="url(#pixelize)" />
		<path fill="brown" d="M3.5 11 h-1 q-3,-4 0,-8 h1 q-3,4 0,8" filter="url(#pixelize)" />
		<rect fill="blue" x="0.5" y="6.7" width="2.5" height="0.6" filter="url(#pixelize)" />
	</svg>
	
	<svg viewBox="0 0 10 13" x="300" y="0" width="100" height="130">
		<rect x="5" width="4" y="6" height="7" fill="red" filter="url(#pixelize)" />
		<circle cx="7" cy="4" r="3" fill="peachpuff" filter="url(#pixelize)" />
		<circle cx="5.6" cy="3.5" r="0.6" fill="black" filter="url(#pixelize)" />
		<circle cx="5" cy="7" r="0.8" fill="peachpuff" filter="url(#pixelize)" />
		<circle cx="1.5" cy="7" r="0.8" fill="peachpuff" filter="url(#pixelize)" />
		<path fill="brown" d="M3.5 11 h-1 q-3,-4 0,-8 h1 q-3,4 0,8" filter="url(#pixelize)" />
		<rect fill="blue" x="0.5" y="6.7" width="4.5" height="0.6" filter="url(#pixelize)" />
	</svg>
	
	<svg viewBox="0 0 10 13" x="400" y="0" width="100" height="130">
		<rect x="5" width="4" y="6" height="7" fill="red" filter="url(#pixelize)" />
		<circle cx="7" cy="4" r="3" fill="peachpuff" filter="url(#pixelize)" />
		<circle cx="5.6" cy="3.5" r="0.6" fill="black" filter="url(#pixelize)" />
		<circle cx="5" cy="7" r="0.8" fill="peachpuff" filter="url(#pixelize)" />
		<circle cx="1.5" cy="7" r="0.8" fill="peachpuff" filter="url(#pixelize)" />
		<path fill="brown" d="M3.5 11 h-1 q-3,-4 0,-8 h1 q-3,4 0,8" filter="url(#pixelize)" />
	</svg>
	
	<svg viewBox="0 0 10 13" x="500" y="0" width="100" height="130">
		<rect x="5" width="4" y="6" height="7" fill="red" filter="url(#pixelize)" />
		<circle cx="7" cy="4" r="3" fill="peachpuff" filter="url(#pixelize)" />
		<circle cx="5.6" cy="3.5" r="0.6" fill="black" filter="url(#pixelize)" />
		<circle cx="5.5" cy="8.5" r="0.8" fill="peachpuff" filter="url(#pixelize)" />
		<circle cx="1.75" cy="8" r="0.8" fill="peachpuff" filter="url(#pixelize)" />
		<path fill="brown" d="M3.75 12 h-1 q-3,-4 0,-8 h1 q-3,4 0,8" filter="url(#pixelize)" />
	</svg>
	
	<svg viewBox="0 0 10 13" x="600" y="0" width="100" height="130">
		<rect x="5" width="4" y="6" height="7" fill="red" filter="url(#pixelize)" />
		<circle cx="7" cy="4" r="3" fill="peachpuff" filter="url(#pixelize)" />
		<circle cx="5.6" cy="3.5" r="0.6" fill="black" filter="url(#pixelize)" />
		<circle cx="3" cy="7" r="0.8" fill="peachpuff" filter="url(#pixelize)" />
		<circle cx="1.5" cy="7" r="0.8" fill="peachpuff" filter="url(#pixelize)" />
		<path fill="brown" d="M3.5 11 h-1 q-3,-4 0,-8 h1 q-3,4 0,8" filter="url(#pixelize)" />
	</svg>
</svg>
